<?xml version="1.0" encoding="UTF-8"?>
<!DOCTYPE svg PUBLIC "-//W3C//DTD SVG 1.1//EN" "http://www.w3.org/Graphics/SVG/1.1/DTD/svg11.dtd">
<!-- Creator: CorelDRAW X7 -->
<svg xmlns="http://www.w3.org/2000/svg" xml:space="preserve" width="784px" height="784px" version="1.1" style="shape-rendering:geometricPrecision; text-rendering:geometricPrecision; image-rendering:optimizeQuality; fill-rule:evenodd; clip-rule:evenodd"
viewBox="0 0 416549 416549"
 xmlns:xlink="http://www.w3.org/1999/xlink">
 <defs>
  <style type="text/css">
   <![CDATA[
    .fil11 {fill:#FEFEFE}
    .fil2 {fill:#F7F9FA}
    .fil5 {fill:#E8E6E5}
    .fil6 {fill:#DCDBDA}
    .fil3 {fill:#585755}
    .fil7 {fill:#555553}
    .fil4 {fill:#1151E6}
    .fil1 {fill:#D4C7F5}
    .fil0 {fill:#E9E0FB}
    .fil8 {fill:#FEFEFE;fill-rule:nonzero}
    .fil9 {fill:#EAE8EB;fill-rule:nonzero}
    .fil10 {fill:url(#id0)}
   ]]>
  </style>
  <linearGradient id="id0" gradientUnits="userSpaceOnUse" x1="208274" y1="81086.4" x2="208274" y2="247811">
   <stop offset="0" style="stop-opacity:1; stop-color:#0959EC"/>
   <stop offset="1" style="stop-opacity:1; stop-color:#580BAF"/>
  </linearGradient>
 </defs>
 <g id="Layer_x0020_1">
  <metadata id="CorelCorpID_0Corel-Layer"/>
  <g id="_2172284158208">
   <path class="fil0" d="M208274 0c115027,0 208275,93248 208275,208274 0,115027 -93248,208275 -208275,208275 -115026,0 -208274,-93248 -208274,-208275 0,-115026 93248,-208274 208274,-208274z"/>
   <path class="fil1" d="M208274 42679c91456,0 165596,74139 165596,165595 0,91457 -74140,165596 -165596,165596 -91455,0 -165595,-74139 -165595,-165596 0,-91456 74140,-165595 165595,-165595z"/>
   <g>
    <g>
     <path class="fil2" d="M353053 289519l-289558 0c-2834,0 -5132,-2298 -5132,-5131l0 -188022c0,-2835 2298,-5131 5132,-5131l289558 0c2835,0 5129,2297 5129,5131l5 188022c0,2833 -2299,5131 -5134,5131z"/>
     <path class="fil3" d="M59198 283827l0 -186900c0,-2598 2106,-4704 4704,-4704l288744 0c2599,0 4706,2106 4706,4704l0 186900c0,2598 -2107,4704 -4706,4704l-288744 0c-2598,0 -4704,-2106 -4704,-4704z"/>
     <polygon class="fil4" points="344932,272901 71615,272901 71615,107852 344932,107852 "/>
     <path class="fil2" d="M405888 342891l-395229 0c-7810,0 -12310,-1653 -10094,-3651l55702 -50244c1165,-1051 6579,-1891 12108,-1891l279800 0c5527,0 10943,840 12109,1891l55701 50244c2213,1998 -2288,3651 -10097,3651z"/>
     <path class="fil5" d="M416544 340250c-25,1516 -4214,2641 -10656,2641l-395229 0c-6328,0 -10482,-1085 -10653,-2560l0 0 0 4474 3 1710c74,1503 4246,2614 10650,2614l395229 0c6422,0 10595,-1118 10651,-2625l5 -1711 0 -4543z"/>
     <path class="fil6" d="M405888 349129c15,0 30,0 45,0 -15,0 -30,0 -45,0zm-395229 0c-16,0 -32,0 -47,0 15,0 32,0 47,0zm-56 0c-15,0 -31,0 -45,0 15,0 29,0 44,0zm395346 0c10,0 25,0 40,0 -15,0 -30,0 -40,0zm-395393 0c-2175,-4 -4091,-137 -5670,-370l3 -4c1581,234 3489,370 5667,374zm395438 0c2178,-4 4084,-140 5668,-374l0 4c-1579,232 -3490,366 -5668,370z"/>
     <path class="fil5" d="M373559 319525l-330572 0c-2285,0 -3706,-426 -3177,-949l27941 -27648c366,-362 2190,-654 4076,-654l272893 0c1886,0 3712,292 4079,654l27939 27647c527,524 -891,950 -3179,950z"/>
     <path class="fil5" d="M257771 339842l-98994 0c-2562,0 -4485,-536 -4296,-1194l4391 -15244c159,-551 2171,-995 4495,-995l89814 0c2324,0 4336,444 4494,995l4391 15244c190,658 -1733,1194 -4295,1194z"/>
     <path class="fil3" d="M77281 305867l-16914 0c-1050,0 -2109,214 -2367,478l-3786 3892c-272,280 385,507 1467,507l17452 0 17450 0c1083,0 2126,-227 2329,-507l2836 -3892c192,-264 -502,-478 -1552,-478l-16915 0z"/>
     <path class="fil3" d="M115670 310744l-15491 0c-1082,0 -1827,-192 -1663,-428l2803 -4045c154,-224 1130,-404 2179,-404l15015 0c1049,0 1797,180 1670,404l-2308 4045c-135,236 -1123,428 -2205,428z"/>
     <path class="fil3" d="M140758 310744l-15490 0c-1084,0 -1859,-192 -1733,-428l2164 -4045c120,-224 1067,-404 2116,-404l15016 0c1049,0 1825,180 1733,404l-1669 4045c-98,236 -1055,428 -2137,428z"/>
     <path class="fil3" d="M165845 310744l-15491 0c-1082,0 -1888,-192 -1799,-428l1525 -4045c84,-224 1003,-404 2052,-404l15016 0c1049,0 1854,180 1796,404l-1030 4045c-60,236 -987,428 -2069,428z"/>
     <path class="fil3" d="M216019 310744l-15490 0c-1083,0 -1949,-192 -1934,-428l247 -4045c13,-224 875,-404 1925,-404l15014 0c1050,0 1912,180 1925,404l247 4045c15,236 -851,428 -1934,428z"/>
     <path class="fil3" d="M190932 310744l-15491 0c-1082,0 -1918,-192 -1866,-428l886 -4045c49,-224 939,-404 1989,-404l15014 0c1050,0 1883,180 1861,404l-391 4045c-23,236 -919,428 -2002,428z"/>
     <path class="fil3" d="M241107 310744l-15491 0c-1083,0 -1979,-192 -2001,-428l-393 -4045c-21,-224 812,-404 1861,-404l15015 0c1050,0 1940,180 1989,404l886 4045c51,236 -784,428 -1866,428z"/>
     <path class="fil3" d="M266193 310744l-15490 0c-1082,0 -2009,-192 -2069,-428l-1030 -4045c-58,-224 747,-404 1796,-404l15015 0c1050,0 1969,180 2053,404l1525 4045c89,236 -717,428 -1800,428z"/>
     <path class="fil3" d="M291281 310744l-15491 0c-1082,0 -2039,-192 -2137,-428l-1668 -4045c-93,-224 683,-404 1732,-404l15015 0c1050,0 1997,180 2116,404l2164 4045c127,236 -649,428 -1731,428z"/>
     <path class="fil3" d="M316368 310744l-15490 0c-1083,0 -2070,-192 -2205,-428l-2308 -4045c-128,-224 620,-404 1669,-404l15015 0c1050,0 2025,180 2180,404l2803 4045c164,236 -581,428 -1664,428z"/>
     <path class="fil3" d="M87639 317525l-14123 0c-1129,0 -1872,-209 -1660,-465l3628 -4392c200,-242 1248,-439 2341,-439l13671 0c1092,0 1838,197 1665,439l-3145 4392c-184,256 -1248,465 -2377,465z"/>
     <path class="fil3" d="M63510 317525l-14342 0c-1129,0 -1841,-209 -1592,-465l4273 -4392c236,-242 1313,-439 2406,-439l13883 0c1092,0 1810,197 1601,439l-3785 4392c-220,256 -1315,465 -2444,465z"/>
     <path class="fil3" d="M111717 317525l-14072 0c-1129,0 -1902,-209 -1728,-465l2988 -4392c165,-242 1185,-439 2277,-439l13622 0c1093,0 1867,197 1729,439l-2506 4392c-147,256 -1181,465 -2310,465z"/>
     <path class="fil3" d="M343302 317525l-14125 0c-1126,0 -2192,-209 -2379,-465l-3147 -4392c-176,-242 568,-439 1664,-439l13668 0c1096,0 2142,197 2343,439l3636 4392c211,256 -533,465 -1660,465z"/>
     <path class="fil3" d="M319170 317525l-14339 0c-1129,0 -2163,-209 -2310,-465l-1011 -1773c-144,-250 641,-452 1752,-452l14108 0c1111,0 2147,202 2318,452l1212 1773c176,256 -599,465 -1730,465z"/>
     <path class="fil3" d="M367379 317525l-14070 0c-1131,0 -2227,-209 -2449,-465l-1529 -1773c-215,-250 508,-452 1620,-452l13844 0c1111,0 2207,202 2453,452l1725 1773c247,256 -463,465 -1594,465z"/>
     <path class="fil3" d="M137875 317525l-16151 0c-1129,0 -1933,-209 -1796,-465l2350 -4392c129,-242 1120,-439 2213,-439l15635 0c1093,0 1898,197 1798,439l-1812 4392c-106,256 -1108,465 -2237,465z"/>
     <path class="fil3" d="M294824 317525l-16151 0c-1129,0 -2131,-209 -2237,-465l-1812 -4392c-100,-242 704,-439 1798,-439l15634 0c1094,0 2085,197 2214,439l2349 4392c138,256 -666,465 -1795,465z"/>
     <path class="fil3" d="M339265 305867l-16911 0c-1051,0 -1746,214 -1554,478l2836 3892c201,280 1246,507 2328,507l17454 0 17449 0c1081,0 1740,-227 1468,-507l-3786 -3892c-261,-265 -1317,-478 -2369,-478l-16915 0z"/>
     <path class="fil3" d="M76983 299989l-10971 0c-1010,0 -2021,198 -2259,443l-3499 3596c-251,258 389,468 1429,468l11305 0 11305 0c1041,0 2052,-209 2258,-468l2877 -3596c197,-245 -464,-443 -1473,-443l-10972 0z"/>
     <path class="fil3" d="M132495 304496l-14881 0c-1040,0 -1776,-177 -1645,-394l2268 -3739c125,-206 1044,-374 2054,-374l14442 0c1009,0 1746,168 1646,374l-1810 3739c-105,217 -1034,394 -2074,394z"/>
     <path class="fil3" d="M108394 304496l-14881 0c-1040,0 -1748,-177 -1581,-394l2857 -3739c158,-206 1104,-374 2113,-374l14442 0c1009,0 1720,168 1587,374l-2399 3739c-141,217 -1097,394 -2138,394z"/>
     <path class="fil3" d="M156595 304496l-14881 0c-1040,0 -1804,-177 -1706,-394l1676 -3739c93,-206 987,-374 1996,-374l14442 0c1009,0 1773,168 1706,374l-1221 3739c-70,217 -971,394 -2012,394z"/>
     <path class="fil3" d="M180696 304496l-14881 0c-1041,0 -1832,-177 -1768,-394l1086 -3739c60,-206 926,-374 1936,-374l14442 0c1009,0 1799,168 1764,374l-629 3739c-36,217 -910,394 -1950,394z"/>
     <path class="fil3" d="M228898 304496l-14882 0c-1040,0 -1888,-177 -1893,-394l-95 -3739c-5,-206 809,-374 1819,-374l14441 0c1010,0 1852,168 1883,374l552 3739c32,217 -786,394 -1825,394z"/>
     <path class="fil3" d="M204797 304496l-14882 0c-1039,0 -1859,-177 -1830,-394l495 -3739c28,-206 868,-374 1877,-374l14443 0c1009,0 1825,168 1823,374l-39 3739c-3,217 -848,394 -1887,394z"/>
     <path class="fil3" d="M252998 304496l-14881 0c-1040,0 -1916,-177 -1956,-394l-685 -3739c-38,-206 750,-374 1759,-374l14443 0c1008,0 1878,168 1941,374l1141 3739c67,217 -722,394 -1762,394z"/>
     <path class="fil3" d="M277099 304496l-14882 0c-1040,0 -1943,-177 -2018,-394l-1275 -3739c-71,-206 691,-374 1700,-374l14442 0c1010,0 1905,168 2001,374l1732 3739c100,217 -661,394 -1700,394z"/>
     <path class="fil3" d="M301199 304496l-14882 0c-1039,0 -1971,-177 -2080,-394l-1865 -3739c-103,-206 632,-374 1641,-374l14442 0c1009,0 1932,168 2060,374l2322 3739c135,217 -598,394 -1638,394z"/>
     <path class="fil3" d="M325300 304496l-14881 0c-1041,0 -2000,-177 -2143,-394l-2456 -3739c-136,-206 573,-374 1582,-374l14443 0c1006,0 1957,168 2117,374l2912 3739c171,217 -533,394 -1574,394z"/>
     <path class="fil3" d="M107107 293368l-13183 0c-965,0 -1621,-153 -1467,-340l1064 -1297c150,-183 1042,-331 1993,-331l13001 0c951,0 1617,148 1488,331l-911 1297c-131,187 -1020,340 -1985,340z"/>
     <path class="fil3" d="M85556 293368l-13184 0c-964,0 -1598,-153 -1416,-340l1262 -1297c179,-183 1094,-331 2044,-331l13001 0c951,0 1594,148 1438,331l-1109 1297c-160,187 -1072,340 -2036,340z"/>
     <path class="fil3" d="M128660 293368l-13184 0c-964,0 -1645,-153 -1520,-340l867 -1297c123,-183 992,-331 1943,-331l13000 0c951,0 1640,148 1539,331l-713 1297c-104,187 -969,340 -1932,340z"/>
     <path class="fil3" d="M150211 293368l-13184 0c-964,0 -1667,-153 -1570,-340l668 -1297c95,-183 942,-331 1893,-331l13000 0c951,0 1663,148 1590,331l-516 1297c-75,187 -917,340 -1881,340z"/>
     <path class="fil3" d="M193314 293368l-13184 0c-963,0 -1714,-153 -1674,-340l274 -1297c39,-183 841,-331 1792,-331l13001 0c950,0 1707,148 1690,331l-121 1297c-18,187 -814,340 -1778,340z"/>
     <path class="fil3" d="M171762 293368l-13183 0c-965,0 -1691,-153 -1623,-340l472 -1297c67,-183 891,-331 1842,-331l13000 0c951,0 1685,148 1641,331l-319 1297c-46,187 -865,340 -1830,340z"/>
     <path class="fil3" d="M214865 293368l-13183 0c-964,0 -1737,-153 -1726,-340l77 -1297c10,-183 790,-331 1741,-331l13000 0c951,0 1731,148 1741,331l77 1297c11,187 -762,340 -1727,340z"/>
     <path class="fil3" d="M236418 293368l-13184 0c-965,0 -1761,-153 -1778,-340l-121 -1297c-17,-183 739,-331 1690,-331l13001 0c951,0 1753,148 1791,331l275 1297c40,187 -711,340 -1674,340z"/>
     <path class="fil3" d="M257969 293368l-13184 0c-964,0 -1783,-153 -1830,-340l-318 -1297c-45,-183 690,-331 1641,-331l12999 0c952,0 1776,148 1843,331l471 1297c69,187 -658,340 -1622,340z"/>
     <path class="fil3" d="M279521 293368l-13184 0c-965,0 -1807,-153 -1881,-340l-516 -1297c-73,-183 639,-331 1590,-331l13000 0c950,0 1797,148 1893,331l668 1297c97,187 -606,340 -1570,340z"/>
     <path class="fil3" d="M301072 293368l-13184 0c-963,0 -1829,-153 -1932,-340l-714 -1297c-100,-183 589,-331 1539,-331l13001 0c951,0 1820,148 1943,331l866 1297c125,187 -555,340 -1519,340z"/>
     <path class="fil3" d="M322625 293368l-13184 0c-965,0 -1854,-153 -1985,-340l-911 -1297c-129,-183 537,-331 1488,-331l12998 0c956,0 1845,148 1996,331l1066 1297c151,187 -503,340 -1468,340z"/>
     <path class="fil3" d="M344178 293368l-13186 0c-965,0 -1875,-153 -2036,-340l-1111 -1297c-156,-183 487,-331 1438,-331l13004 0c950,0 1865,148 2041,331l1262 1297c181,187 -453,340 -1412,340z"/>
     <path class="fil3" d="M340662 299989l-9870 0c-1012,0 -1665,198 -1469,443l2932 3596c211,258 1222,468 2262,468l10173 0 10173 0c1041,0 1679,-209 1428,-468l-3495 -3596c-241,-245 -1252,-443 -2258,-443l-9876 0z"/>
     <path class="fil3" d="M81810 294544l-10568 0c-973,0 -1939,184 -2161,411l-3242 3334c-232,239 390,433 1391,433l10878 0 5441 0c1001,0 1975,-194 2174,-433l2790 -3334c191,-227 -443,-410 -1416,-410l-5287 -1z"/>
     <path class="fil3" d="M129926 298722l-14318 0c-1001,0 -1706,-164 -1576,-366l2229 -3465c123,-191 1011,-346 1983,-346l13911 -1c972,0 1680,156 1579,347l-1805 3464c-105,202 -1002,367 -2003,367z"/>
     <path class="fil3" d="M106738 298722l-14318 0c-1001,0 -1681,-164 -1519,-366l2776 -3465c154,-191 1066,-346 2038,-346l13911 -1c972,0 1655,156 1525,347l-2353 3464c-137,202 -1059,367 -2060,367z"/>
     <path class="fil3" d="M153116 298722l-14319 0c-1000,0 -1733,-164 -1635,-366l1682 -3465c93,-191 957,-346 1929,-346l13912 -1c971,0 1703,156 1633,347l-1258 3464c-74,202 -944,367 -1944,367z"/>
     <path class="fil3" d="M176303 298722l-14317 0c-1001,0 -1759,-164 -1692,-366l1134 -3465c63,-191 902,-346 1874,-346l13912 -1c971,0 1727,156 1688,347l-711 3464c-41,202 -887,367 -1888,367z"/>
     <path class="fil3" d="M222681 298722l-14318 0c-1001,0 -1810,-164 -1808,-366l40 -3465c3,-192 793,-346 1765,-346l13911 -1c972,0 1778,155 1799,347l383 3464c22,202 -771,367 -1772,367z"/>
     <path class="fil3" d="M199493 298722l-14319 0c-1000,0 -1785,-164 -1750,-366l588 -3465c33,-191 847,-346 1819,-346l13911 -1c973,0 1753,155 1744,347l-164 3464c-10,202 -829,367 -1829,367z"/>
     <path class="fil3" d="M245870 298722l-14319 0c-1000,0 -1835,-164 -1865,-366l-506 -3465c-28,-192 737,-346 1709,-346l13911 -1c972,0 1802,155 1854,347l929 3464c54,202 -713,367 -1713,367z"/>
     <path class="fil3" d="M269058 298722l-14318 0c-1000,0 -1862,-164 -1923,-366l-1054 -3465c-58,-192 683,-346 1655,-346l13912 -1c971,0 1825,155 1907,347l1478 3464c86,202 -656,367 -1657,367z"/>
     <path class="fil3" d="M292247 298722l-14318 0c-1001,0 -1888,-164 -1981,-366l-1601 -3465c-89,-192 628,-346 1600,-346l13911 -1c973,0 1852,155 1963,347l2024 3464c118,202 -598,367 -1598,367z"/>
     <path class="fil3" d="M315436 298722l-14319 0c-1000,0 -1913,-164 -2039,-366l-2147 -3465c-119,-192 573,-346 1545,-346l13911 -1c972,0 1875,155 2018,347l2571 3464c150,202 -540,367 -1540,367z"/>
     <path class="fil3" d="M330515 294544l-9509 0c-971,0 -1619,184 -1444,411l2595 3334c187,239 1146,433 2147,433l9791 0 15222 0c1001,0 1624,-194 1393,-433l-3244 -3334c-221,-227 -1187,-410 -2162,-410l-14789 -1z"/>
     <path class="fil3" d="M268666 317525l-120784 0c-1129,0 -1965,-209 -1869,-465l1656 -4392c91,-242 1051,-439 2143,-439l116924 0c1092,0 2052,197 2143,439l1655 4392c97,256 -739,465 -1868,465z"/>
     <polygon class="fil7" points="96156,272902 96156,272902 208274,272901 344932,272901 344932,107852 344932,272901 "/>
    </g>
    <path class="fil8" d="M215541 71482c9145,5114 18826,8561 29157,9983 10486,1441 21780,847 34023,-2146l18309 -4476 151 18893c300,37518 -3581,69839 -15623,97076 -12543,28369 -33422,50748 -66720,66994l-6563 3202 -6564 -3202c-33299,-16246 -54178,-38625 -66719,-66994 -12043,-27237 -15924,-59558 -15623,-97076l151 -18893 18309 4476c12242,2993 23536,3587 34023,2146 10329,-1422 20011,-4869 29156,-9983l7267 -4063 7266 4063z"/>
    <path class="fil9" d="M211244 77504c10310,5766 21270,9658 33014,11274 11809,1624 24469,968 38130,-2372l7482 -1828 61 7719c297,37070 -3479,68872 -15204,95390 -11929,26981 -31881,48312 -63771,63871l-2681 1308 -2682 -1308c-31891,-15559 -51841,-36890 -63771,-63871 -11724,-26518 -15500,-58320 -15204,-95390l62 -7719 7480 1828c13662,3340 26322,3996 38130,2372 11746,-1617 22705,-5509 33016,-11274l2969 -1660 2969 1660z"/>
    <path class="fil10" d="M208274 81086c22387,12518 47695,16915 77179,9707 593,74029 -14913,126638 -77179,157018 -62265,-30380 -77770,-82989 -77178,-157018 29484,7208 54792,2811 77178,-9707z"/>
    <path class="fil11" d="M200104 158202l-8010 -8009 3432 -3433 8010 8010 3432 3432 -3432 3432 -8010 8010 -3432 -3432 8010 -8010zm8170 -40451l0 0c22249,0 40452,18203 40452,40451l0 0c0,10257 -3870,19651 -10219,26801l-8593 -8593c4161,-4931 6677,-11290 6677,-18208l0 0c0,-15573 -12742,-28316 -28317,-28316l0 0c-6918,0 -13276,2516 -18208,6677l-8592 -8593c7150,-6349 16544,-10219 26801,-10219l-1 0zm26800 70684c-7149,6349 -16543,10219 -26800,10219l0 0c-22248,0 -40451,-18203 -40451,-40452l0 0c0,-10255 3870,-19651 10219,-26799l8593 8591c-4161,4932 -6677,11290 -6677,18208l0 0c0,15574 12743,28317 28316,28317l0 0c6918,0 13277,-2516 18209,-6677l8591 8593zm-26800 -18906l16181 0 0 4854 -16181 0 0 -4854z"/>
   </g>
  </g>
 </g>
</svg>
